solid 
 facet normal  0.000000e+00  0.000000e+00  1.000000e+00
   outer loop
     vertex  0.000000e+00  9.500000e-01  9.000000e+00
     vertex -7.821241e-01  6.591195e-01  9.000000e+00
     vertex -7.206235e-01  3.573154e-01  9.000000e+00
   endloop
 endfacet
 facet normal  0.000000e+00  0.000000e+00  1.000000e+00
   outer loop
     vertex  0.000000e+00  9.500000e-01  9.000000e+00
     vertex -8.833990e-01  9.500000e-01  9.000000e+00
     vertex -7.821241e-01  6.591195e-01  9.000000e+00
   endloop
 endfacet
 facet normal  0.000000e+00  0.000000e+00  1.000000e+00
   outer loop
     vertex  0.000000e+00  5.000000e-02  9.000000e+00
     vertex -7.206235e-01  3.573154e-01  9.000000e+00
     vertex -7.000000e-01  5.000000e-02  9.000000e+00
   endloop
 endfacet
 facet normal  0.000000e+00 -0.000000e+00  1.000000e+00
   outer loop
     vertex  0.000000e+00  5.000000e-02  9.000000e+00
     vertex  0.000000e+00  9.500000e-01  9.000000e+00
     vertex -7.206235e-01  3.573154e-01  9.000000e+00
   endloop
 endfacet
 facet normal  6.344132e-16 -1.000000e+00  1.233581e-17
   outer loop
     vertex  0.000000e+00  5.000000e-02 -9.000000e+00
     vertex -7.000000e-01  5.000000e-02  9.000000e+00
     vertex -7.000000e-01  5.000000e-02 -9.000000e+00
   endloop
 endfacet
 facet normal  3.172066e-16 -1.000000e+00  0.000000e+00
   outer loop
     vertex  0.000000e+00  5.000000e-02 -9.000000e+00
     vertex  0.000000e+00  5.000000e-02  9.000000e+00
     vertex -7.000000e-01  5.000000e-02  9.000000e+00
   endloop
 endfacet
 facet normal -8.545988e-15  1.000000e+00 -4.194176e-16
   outer loop
     vertex  0.000000e+00  9.500000e-01 -9.000000e+00
     vertex -8.833990e-01  9.500000e-01 -9.000000e+00
     vertex -8.833990e-01  9.500000e-01  9.000000e+00
   endloop
 endfacet
 facet normal  0.000000e+00  1.000000e+00 -0.000000e+00
   outer loop
     vertex  0.000000e+00  9.500000e-01 -9.000000e+00
     vertex -8.833990e-01  9.500000e-01  9.000000e+00
     vertex  0.000000e+00  9.500000e-01  9.000000e+00
   endloop
 endfacet
 facet normal  0.000000e+00  0.000000e+00 -1.000000e+00
   outer loop
     vertex  0.000000e+00  9.500000e-01 -9.000000e+00
     vertex -7.206235e-01  3.573154e-01 -9.000000e+00
     vertex -7.821241e-01  6.591195e-01 -9.000000e+00
   endloop
 endfacet
 facet normal  0.000000e+00  0.000000e+00 -1.000000e+00
   outer loop
     vertex  0.000000e+00  9.500000e-01 -9.000000e+00
     vertex -7.821241e-01  6.591195e-01 -9.000000e+00
     vertex -8.833990e-01  9.500000e-01 -9.000000e+00
   endloop
 endfacet
 facet normal -0.000000e+00  0.000000e+00 -1.000000e+00
   outer loop
     vertex  0.000000e+00  5.000000e-02 -9.000000e+00
     vertex -7.000000e-01  5.000000e-02 -9.000000e+00
     vertex -7.206235e-01  3.573154e-01 -9.000000e+00
   endloop
 endfacet
 facet normal  0.000000e+00  0.000000e+00 -1.000000e+00
   outer loop
     vertex  0.000000e+00  5.000000e-02 -9.000000e+00
     vertex -7.206235e-01  3.573154e-01 -9.000000e+00
     vertex  0.000000e+00  9.500000e-01 -9.000000e+00
   endloop
 endfacet
endsolid
