solid walls
facet normal 0.000000 0.000000 -1.000000
outer loop
vertex 38.500000 0.000000 -5.000000
vertex 111.500000 4.000000 -5.000000
vertex 111.500000 0.000000 -5.000000
endloop
endfacet
facet normal 0.000000 0.000000 -1.000000
outer loop
vertex 38.500000 4.000000 -5.000000
vertex 111.500000 4.000000 -5.000000
vertex 38.500000 0.000000 -5.000000
endloop
endfacet
facet normal 0.000000 0.000000 -1.000000
outer loop
vertex -0.000000 0.000000 -10.000000
vertex 23.500000 4.000000 -10.000000
vertex 23.500000 0.000000 -10.000000
endloop
endfacet
facet normal 0.000000 0.000000 -1.000000
outer loop
vertex -0.000000 4.000000 -10.000000
vertex 23.500000 4.000000 -10.000000
vertex -0.000000 0.000000 -10.000000
endloop
endfacet
facet normal 0.000000 0.000000 1.000000
outer loop
vertex 23.500000 0.000000 10.000000
vertex -0.000000 4.000000 10.000000
vertex -0.000000 0.000000 10.000000
endloop
endfacet
facet normal 0.000000 0.000000 1.000000
outer loop
vertex 23.500000 4.000000 10.000000
vertex -0.000000 4.000000 10.000000
vertex 23.500000 0.000000 10.000000
endloop
endfacet
facet normal 0.000000 0.000000 1.000000
outer loop
vertex 111.500000 0.000000 5.000000
vertex 38.500000 4.000000 5.000000
vertex 38.500000 0.000000 5.000000
endloop
endfacet
facet normal 0.000000 0.000000 1.000000
outer loop
vertex 111.500000 4.000000 5.000000
vertex 38.500000 4.000000 5.000000
vertex 111.500000 0.000000 5.000000
endloop
endfacet
facet normal 0.000000 0.000000 1.000000
outer loop
vertex 150.000000 0.000000 10.000000
vertex 126.500000 4.000000 10.000000
vertex 126.500000 0.000000 10.000000
endloop
endfacet
facet normal 0.000000 0.000000 1.000000
outer loop
vertex 150.000000 4.000000 10.000000
vertex 126.500000 4.000000 10.000000
vertex 150.000000 0.000000 10.000000
endloop
endfacet
facet normal 0.000000 0.000000 -1.000000
outer loop
vertex 126.500000 0.000000 -10.000000
vertex 150.000000 4.000000 -10.000000
vertex 150.000000 0.000000 -10.000000
endloop
endfacet
facet normal 0.000000 0.000000 -1.000000
outer loop
vertex 126.500000 4.000000 -10.000000
vertex 150.000000 4.000000 -10.000000
vertex 126.500000 0.000000 -10.000000
endloop
endfacet
facet normal 0.000000 1.000000 0.000000
outer loop
vertex 124.272919 4.000000 8.509246
vertex 124.272919 4.000000 -8.509246
vertex 121.899055 4.000000 7.265453
endloop
endfacet
facet normal 0.000000 1.000000 0.000000
outer loop
vertex 126.500000 4.000000 10.000000
vertex 124.272919 4.000000 -8.509246
vertex 124.272919 4.000000 8.509246
endloop
endfacet
facet normal 0.000000 1.000000 0.000000
outer loop
vertex 121.899055 4.000000 7.265453
vertex 124.272919 4.000000 -8.509246
vertex 121.899055 4.000000 -7.265453
endloop
endfacet
facet normal 0.000000 1.000000 0.000000
outer loop
vertex 126.500000 4.000000 10.000000
vertex 126.500000 4.000000 -10.000000
vertex 124.272919 4.000000 -8.509246
endloop
endfacet
facet normal 0.000000 1.000000 0.000000
outer loop
vertex 126.500000 4.000000 10.000000
vertex 150.000000 4.000000 10.000000
vertex 126.500000 4.000000 -10.000000
endloop
endfacet
facet normal 0.000000 1.000000 0.000000
outer loop
vertex 150.000000 4.000000 10.000000
vertex 150.000000 4.000000 -10.000000
vertex 126.500000 4.000000 -10.000000
endloop
endfacet
facet normal 0.000000 1.000000 0.000000
outer loop
vertex -0.000000 4.000000 10.000000
vertex 23.500000 4.000000 -10.000000
vertex -0.000000 4.000000 -10.000000
endloop
endfacet
facet normal 0.000000 1.000000 0.000000
outer loop
vertex 23.500000 4.000000 10.000000
vertex 23.500000 4.000000 -10.000000
vertex -0.000000 4.000000 10.000000
endloop
endfacet
facet normal 0.000000 1.000000 0.000000
outer loop
vertex 25.727081 4.000000 8.509246
vertex 25.727081 4.000000 -8.509246
vertex 23.500000 4.000000 10.000000
endloop
endfacet
facet normal 0.000000 1.000000 0.000000
outer loop
vertex 28.100943 4.000000 7.265453
vertex 25.727081 4.000000 -8.509246
vertex 25.727081 4.000000 8.509246
endloop
endfacet
facet normal 0.000000 1.000000 0.000000
outer loop
vertex 23.500000 4.000000 10.000000
vertex 25.727081 4.000000 -8.509246
vertex 23.500000 4.000000 -10.000000
endloop
endfacet
facet normal 0.000000 1.000000 0.000000
outer loop
vertex 28.100943 4.000000 7.265453
vertex 28.100943 4.000000 -7.265453
vertex 25.727081 4.000000 -8.509246
endloop
endfacet
facet normal 0.000000 1.000000 0.000000
outer loop
vertex 30.594305 4.000000 6.282917
vertex 30.594305 4.000000 -6.282917
vertex 28.100943 4.000000 7.265453
endloop
endfacet
facet normal 0.000000 1.000000 0.000000
outer loop
vertex 33.178516 4.000000 5.572928
vertex 30.594305 4.000000 -6.282917
vertex 30.594305 4.000000 6.282917
endloop
endfacet
facet normal 0.000000 1.000000 0.000000
outer loop
vertex 28.100943 4.000000 7.265453
vertex 30.594305 4.000000 -6.282917
vertex 28.100943 4.000000 -7.265453
endloop
endfacet
facet normal 0.000000 1.000000 0.000000
outer loop
vertex 33.178516 4.000000 5.572928
vertex 33.178516 4.000000 -5.572928
vertex 30.594305 4.000000 -6.282917
endloop
endfacet
facet normal 0.000000 1.000000 0.000000
outer loop
vertex 35.823883 4.000000 5.143645
vertex 35.823883 4.000000 -5.143645
vertex 33.178516 4.000000 5.572928
endloop
endfacet
facet normal 0.000000 1.000000 0.000000
outer loop
vertex 33.178516 4.000000 5.572928
vertex 35.823883 4.000000 -5.143645
vertex 33.178516 4.000000 -5.572928
endloop
endfacet
facet normal 0.000000 1.000000 0.000000
outer loop
vertex 38.500000 4.000000 5.000000
vertex 38.500000 4.000000 -5.000000
vertex 35.823883 4.000000 5.143645
endloop
endfacet
facet normal 0.000000 1.000000 0.000000
outer loop
vertex 35.823883 4.000000 5.143645
vertex 38.500000 4.000000 -5.000000
vertex 35.823883 4.000000 -5.143645
endloop
endfacet
facet normal 0.000000 1.000000 0.000000
outer loop
vertex 111.500000 4.000000 5.000000
vertex 111.500000 4.000000 -5.000000
vertex 38.500000 4.000000 5.000000
endloop
endfacet
facet normal 0.000000 1.000000 0.000000
outer loop
vertex 114.176117 4.000000 5.143645
vertex 111.500000 4.000000 -5.000000
vertex 111.500000 4.000000 5.000000
endloop
endfacet
facet normal 0.000000 1.000000 0.000000
outer loop
vertex 38.500000 4.000000 5.000000
vertex 111.500000 4.000000 -5.000000
vertex 38.500000 4.000000 -5.000000
endloop
endfacet
facet normal 0.000000 1.000000 0.000000
outer loop
vertex 116.821480 4.000000 5.572928
vertex 114.176117 4.000000 -5.143645
vertex 114.176117 4.000000 5.143645
endloop
endfacet
facet normal 0.000000 1.000000 0.000000
outer loop
vertex 114.176117 4.000000 5.143645
vertex 114.176117 4.000000 -5.143645
vertex 111.500000 4.000000 -5.000000
endloop
endfacet
facet normal 0.000000 1.000000 0.000000
outer loop
vertex 119.405693 4.000000 6.282917
vertex 116.821480 4.000000 -5.572928
vertex 116.821480 4.000000 5.572928
endloop
endfacet
facet normal 0.000000 1.000000 0.000000
outer loop
vertex 116.821480 4.000000 5.572928
vertex 116.821480 4.000000 -5.572928
vertex 114.176117 4.000000 -5.143645
endloop
endfacet
facet normal 0.000000 1.000000 0.000000
outer loop
vertex 121.899055 4.000000 7.265453
vertex 119.405693 4.000000 -6.282917
vertex 119.405693 4.000000 6.282917
endloop
endfacet
facet normal 0.000000 1.000000 0.000000
outer loop
vertex 119.405693 4.000000 6.282917
vertex 119.405693 4.000000 -6.282917
vertex 116.821480 4.000000 -5.572928
endloop
endfacet
facet normal 0.000000 1.000000 0.000000
outer loop
vertex 121.899055 4.000000 7.265453
vertex 121.899055 4.000000 -7.265453
vertex 119.405693 4.000000 -6.282917
endloop
endfacet
facet normal 0.000000 -1.000000 0.000000
outer loop
vertex 121.899055 0.000000 -7.265453
vertex 119.405693 0.000000 6.282917
vertex 119.405693 0.000000 -6.282917
endloop
endfacet
facet normal 0.000000 -1.000000 0.000000
outer loop
vertex 124.272919 0.000000 -8.509246
vertex 124.272919 0.000000 8.509246
vertex 121.899055 0.000000 7.265453
endloop
endfacet
facet normal 0.000000 -1.000000 0.000000
outer loop
vertex 124.272919 0.000000 -8.509246
vertex 121.899055 0.000000 7.265453
vertex 121.899055 0.000000 -7.265453
endloop
endfacet
facet normal 0.000000 -1.000000 0.000000
outer loop
vertex 126.500000 0.000000 -10.000000
vertex 126.500000 0.000000 10.000000
vertex 124.272919 0.000000 8.509246
endloop
endfacet
facet normal 0.000000 -1.000000 0.000000
outer loop
vertex 126.500000 0.000000 -10.000000
vertex 124.272919 0.000000 8.509246
vertex 124.272919 0.000000 -8.509246
endloop
endfacet
facet normal 0.000000 -1.000000 0.000000
outer loop
vertex 150.000000 0.000000 10.000000
vertex 126.500000 0.000000 10.000000
vertex 126.500000 0.000000 -10.000000
endloop
endfacet
facet normal 0.000000 -1.000000 0.000000
outer loop
vertex 150.000000 0.000000 -10.000000
vertex 150.000000 0.000000 10.000000
vertex 126.500000 0.000000 -10.000000
endloop
endfacet
facet normal 0.000000 -1.000000 0.000000
outer loop
vertex 23.500000 0.000000 -10.000000
vertex 23.500000 0.000000 10.000000
vertex -0.000000 0.000000 10.000000
endloop
endfacet
facet normal 0.000000 -1.000000 0.000000
outer loop
vertex 23.500000 0.000000 -10.000000
vertex -0.000000 0.000000 10.000000
vertex -0.000000 0.000000 -10.000000
endloop
endfacet
facet normal 0.000000 -1.000000 0.000000
outer loop
vertex 25.727081 0.000000 -8.509246
vertex 25.727081 0.000000 8.509246
vertex 23.500000 0.000000 10.000000
endloop
endfacet
facet normal 0.000000 -1.000000 0.000000
outer loop
vertex 25.727081 0.000000 -8.509246
vertex 23.500000 0.000000 10.000000
vertex 23.500000 0.000000 -10.000000
endloop
endfacet
facet normal 0.000000 -1.000000 0.000000
outer loop
vertex 28.100943 0.000000 -7.265453
vertex 28.100943 0.000000 7.265453
vertex 25.727081 0.000000 8.509246
endloop
endfacet
facet normal 0.000000 -1.000000 0.000000
outer loop
vertex 28.100943 0.000000 -7.265453
vertex 25.727081 0.000000 8.509246
vertex 25.727081 0.000000 -8.509246
endloop
endfacet
facet normal 0.000000 -1.000000 0.000000
outer loop
vertex 30.594305 0.000000 -6.282917
vertex 30.594305 0.000000 6.282917
vertex 28.100943 0.000000 7.265453
endloop
endfacet
facet normal 0.000000 -1.000000 0.000000
outer loop
vertex 30.594305 0.000000 -6.282917
vertex 28.100943 0.000000 7.265453
vertex 28.100943 0.000000 -7.265453
endloop
endfacet
facet normal 0.000000 -1.000000 0.000000
outer loop
vertex 33.178516 0.000000 -5.572928
vertex 33.178516 0.000000 5.572928
vertex 30.594305 0.000000 6.282917
endloop
endfacet
facet normal 0.000000 -1.000000 0.000000
outer loop
vertex 33.178516 0.000000 -5.572928
vertex 30.594305 0.000000 6.282917
vertex 30.594305 0.000000 -6.282917
endloop
endfacet
facet normal 0.000000 -1.000000 0.000000
outer loop
vertex 35.823883 0.000000 -5.143645
vertex 35.823883 0.000000 5.143645
vertex 33.178516 0.000000 5.572928
endloop
endfacet
facet normal 0.000000 -1.000000 0.000000
outer loop
vertex 35.823883 0.000000 -5.143645
vertex 33.178516 0.000000 5.572928
vertex 33.178516 0.000000 -5.572928
endloop
endfacet
facet normal 0.000000 -1.000000 0.000000
outer loop
vertex 38.500000 0.000000 -5.000000
vertex 38.500000 0.000000 5.000000
vertex 35.823883 0.000000 5.143645
endloop
endfacet
facet normal 0.000000 -1.000000 0.000000
outer loop
vertex 38.500000 0.000000 -5.000000
vertex 35.823883 0.000000 5.143645
vertex 35.823883 0.000000 -5.143645
endloop
endfacet
facet normal 0.000000 -1.000000 0.000000
outer loop
vertex 111.500000 0.000000 -5.000000
vertex 111.500000 0.000000 5.000000
vertex 38.500000 0.000000 5.000000
endloop
endfacet
facet normal 0.000000 -1.000000 0.000000
outer loop
vertex 111.500000 0.000000 -5.000000
vertex 38.500000 0.000000 5.000000
vertex 38.500000 0.000000 -5.000000
endloop
endfacet
facet normal 0.000000 -1.000000 0.000000
outer loop
vertex 114.176117 0.000000 -5.143645
vertex 114.176117 0.000000 5.143645
vertex 111.500000 0.000000 5.000000
endloop
endfacet
facet normal 0.000000 -1.000000 0.000000
outer loop
vertex 114.176117 0.000000 -5.143645
vertex 111.500000 0.000000 5.000000
vertex 111.500000 0.000000 -5.000000
endloop
endfacet
facet normal 0.000000 -1.000000 0.000000
outer loop
vertex 116.821480 0.000000 -5.572928
vertex 116.821480 0.000000 5.572928
vertex 114.176117 0.000000 5.143645
endloop
endfacet
facet normal 0.000000 -1.000000 0.000000
outer loop
vertex 116.821480 0.000000 -5.572928
vertex 114.176117 0.000000 5.143645
vertex 114.176117 0.000000 -5.143645
endloop
endfacet
facet normal 0.000000 -1.000000 0.000000
outer loop
vertex 119.405693 0.000000 -6.282917
vertex 119.405693 0.000000 6.282917
vertex 116.821480 0.000000 5.572928
endloop
endfacet
facet normal 0.000000 -1.000000 0.000000
outer loop
vertex 119.405693 0.000000 -6.282917
vertex 116.821480 0.000000 5.572928
vertex 116.821480 0.000000 -5.572928
endloop
endfacet
facet normal 0.000000 -1.000000 0.000000
outer loop
vertex 121.899055 0.000000 -7.265453
vertex 121.899055 0.000000 7.265453
vertex 119.405693 0.000000 6.282917
endloop
endfacet
facet normal -0.556258 0.000000 -0.831010
outer loop
vertex 126.500000 4.000000 -10.000000
vertex 126.500000 0.000000 -10.000000
vertex 124.272919 4.000000 -8.509246
endloop
endfacet
facet normal -0.464107 0.000000 -0.885779
outer loop
vertex 124.272919 4.000000 -8.509246
vertex 124.272919 0.000000 -8.509246
vertex 121.899055 4.000000 -7.265453
endloop
endfacet
facet normal -0.556258 0.000000 -0.831010
outer loop
vertex 126.500000 0.000000 -10.000000
vertex 124.272919 0.000000 -8.509246
vertex 124.272919 4.000000 -8.509246
endloop
endfacet
facet normal -0.366622 0.000000 -0.930370
outer loop
vertex 121.899055 4.000000 -7.265453
vertex 121.899055 0.000000 -7.265453
vertex 119.405693 4.000000 -6.282917
endloop
endfacet
facet normal -0.464107 0.000000 -0.885779
outer loop
vertex 124.272919 0.000000 -8.509246
vertex 121.899055 0.000000 -7.265453
vertex 121.899055 4.000000 -7.265453
endloop
endfacet
facet normal -0.264924 0.000000 -0.964269
outer loop
vertex 119.405693 4.000000 -6.282917
vertex 119.405693 0.000000 -6.282917
vertex 116.821480 4.000000 -5.572928
endloop
endfacet
facet normal -0.366622 0.000000 -0.930370
outer loop
vertex 121.899055 0.000000 -7.265453
vertex 119.405693 0.000000 -6.282917
vertex 119.405693 4.000000 -6.282917
endloop
endfacet
facet normal -0.160182 0.000000 -0.987087
outer loop
vertex 116.821480 4.000000 -5.572928
vertex 116.821480 0.000000 -5.572928
vertex 114.176117 4.000000 -5.143645
endloop
endfacet
facet normal -0.264924 0.000000 -0.964269
outer loop
vertex 119.405693 0.000000 -6.282917
vertex 116.821480 0.000000 -5.572928
vertex 116.821480 4.000000 -5.572928
endloop
endfacet
facet normal -0.053600 0.000000 -0.998562
outer loop
vertex 114.176117 4.000000 -5.143645
vertex 114.176117 0.000000 -5.143645
vertex 111.500000 4.000000 -5.000000
endloop
endfacet
facet normal -0.160183 0.000000 -0.987087
outer loop
vertex 116.821480 0.000000 -5.572928
vertex 114.176117 0.000000 -5.143645
vertex 114.176117 4.000000 -5.143645
endloop
endfacet
facet normal -0.053599 0.000000 -0.998563
outer loop
vertex 114.176117 0.000000 -5.143645
vertex 111.500000 0.000000 -5.000000
vertex 111.500000 4.000000 -5.000000
endloop
endfacet
facet normal -0.556258 0.000000 0.831010
outer loop
vertex 126.500000 4.000000 10.000000
vertex 124.272919 4.000000 8.509246
vertex 126.500000 0.000000 10.000000
endloop
endfacet
facet normal -0.556258 0.000000 0.831010
outer loop
vertex 126.500000 0.000000 10.000000
vertex 124.272919 4.000000 8.509246
vertex 124.272919 0.000000 8.509246
endloop
endfacet
facet normal -0.464107 0.000000 0.885779
outer loop
vertex 124.272919 0.000000 8.509246
vertex 124.272919 4.000000 8.509246
vertex 121.899055 0.000000 7.265453
endloop
endfacet
facet normal -0.366622 0.000000 0.930370
outer loop
vertex 121.899055 0.000000 7.265453
vertex 121.899055 4.000000 7.265453
vertex 119.405693 0.000000 6.282917
endloop
endfacet
facet normal -0.464107 0.000000 0.885779
outer loop
vertex 124.272919 4.000000 8.509246
vertex 121.899055 4.000000 7.265453
vertex 121.899055 0.000000 7.265453
endloop
endfacet
facet normal -0.264924 0.000000 0.964269
outer loop
vertex 119.405693 0.000000 6.282917
vertex 119.405693 4.000000 6.282917
vertex 116.821480 0.000000 5.572928
endloop
endfacet
facet normal -0.366622 0.000000 0.930370
outer loop
vertex 121.899055 4.000000 7.265453
vertex 119.405693 4.000000 6.282917
vertex 119.405693 0.000000 6.282917
endloop
endfacet
facet normal -0.160182 0.000000 0.987087
outer loop
vertex 116.821480 0.000000 5.572928
vertex 116.821480 4.000000 5.572928
vertex 114.176117 0.000000 5.143645
endloop
endfacet
facet normal -0.264924 0.000000 0.964269
outer loop
vertex 119.405693 4.000000 6.282917
vertex 116.821480 4.000000 5.572928
vertex 116.821480 0.000000 5.572928
endloop
endfacet
facet normal -0.160183 0.000000 0.987087
outer loop
vertex 116.821480 4.000000 5.572928
vertex 114.176117 4.000000 5.143645
vertex 114.176117 0.000000 5.143645
endloop
endfacet
facet normal -0.053599 0.000000 0.998563
outer loop
vertex 114.176117 0.000000 5.143645
vertex 111.500000 4.000000 5.000000
vertex 111.500000 0.000000 5.000000
endloop
endfacet
facet normal -0.053600 0.000000 0.998562
outer loop
vertex 114.176117 4.000000 5.143645
vertex 111.500000 4.000000 5.000000
vertex 114.176117 0.000000 5.143645
endloop
endfacet
facet normal 0.556258 0.000000 0.831010
outer loop
vertex 23.500000 0.000000 10.000000
vertex 25.727081 0.000000 8.509246
vertex 23.500000 4.000000 10.000000
endloop
endfacet
facet normal 0.556258 0.000000 0.831010
outer loop
vertex 23.500000 4.000000 10.000000
vertex 25.727081 0.000000 8.509246
vertex 25.727081 4.000000 8.509246
endloop
endfacet
facet normal 0.464107 0.000000 0.885779
outer loop
vertex 25.727081 4.000000 8.509246
vertex 28.100943 0.000000 7.265453
vertex 28.100943 4.000000 7.265453
endloop
endfacet
facet normal 0.464107 0.000000 0.885779
outer loop
vertex 25.727081 0.000000 8.509246
vertex 28.100943 0.000000 7.265453
vertex 25.727081 4.000000 8.509246
endloop
endfacet
facet normal 0.366622 0.000000 0.930370
outer loop
vertex 28.100943 4.000000 7.265453
vertex 30.594305 0.000000 6.282917
vertex 30.594305 4.000000 6.282917
endloop
endfacet
facet normal 0.264924 0.000000 0.964269
outer loop
vertex 30.594305 4.000000 6.282917
vertex 30.594305 0.000000 6.282917
vertex 33.178516 4.000000 5.572928
endloop
endfacet
facet normal 0.366622 0.000000 0.930370
outer loop
vertex 28.100943 0.000000 7.265453
vertex 30.594305 0.000000 6.282917
vertex 28.100943 4.000000 7.265453
endloop
endfacet
facet normal 0.160182 0.000000 0.987087
outer loop
vertex 33.178516 4.000000 5.572928
vertex 33.178516 0.000000 5.572928
vertex 35.823883 4.000000 5.143645
endloop
endfacet
facet normal 0.264925 0.000000 0.964269
outer loop
vertex 30.594305 0.000000 6.282917
vertex 33.178516 0.000000 5.572928
vertex 33.178516 4.000000 5.572928
endloop
endfacet
facet normal 0.053600 0.000000 0.998562
outer loop
vertex 35.823883 4.000000 5.143645
vertex 35.823883 0.000000 5.143645
vertex 38.500000 4.000000 5.000000
endloop
endfacet
facet normal 0.160182 0.000000 0.987087
outer loop
vertex 33.178516 0.000000 5.572928
vertex 35.823883 0.000000 5.143645
vertex 35.823883 4.000000 5.143645
endloop
endfacet
facet normal 0.053599 0.000000 0.998563
outer loop
vertex 35.823883 0.000000 5.143645
vertex 38.500000 0.000000 5.000000
vertex 38.500000 4.000000 5.000000
endloop
endfacet
facet normal 0.556258 0.000000 -0.831010
outer loop
vertex 23.500000 0.000000 -10.000000
vertex 23.500000 4.000000 -10.000000
vertex 25.727081 0.000000 -8.509246
endloop
endfacet
facet normal 0.464107 0.000000 -0.885779
outer loop
vertex 25.727081 0.000000 -8.509246
vertex 25.727081 4.000000 -8.509246
vertex 28.100943 0.000000 -7.265453
endloop
endfacet
facet normal 0.556258 0.000000 -0.831010
outer loop
vertex 23.500000 4.000000 -10.000000
vertex 25.727081 4.000000 -8.509246
vertex 25.727081 0.000000 -8.509246
endloop
endfacet
facet normal 0.366622 0.000000 -0.930370
outer loop
vertex 28.100943 0.000000 -7.265453
vertex 28.100943 4.000000 -7.265453
vertex 30.594305 0.000000 -6.282917
endloop
endfacet
facet normal 0.464107 0.000000 -0.885779
outer loop
vertex 25.727081 4.000000 -8.509246
vertex 28.100943 4.000000 -7.265453
vertex 28.100943 0.000000 -7.265453
endloop
endfacet
facet normal 0.264924 0.000000 -0.964269
outer loop
vertex 30.594305 0.000000 -6.282917
vertex 30.594305 4.000000 -6.282917
vertex 33.178516 0.000000 -5.572928
endloop
endfacet
facet normal 0.366622 0.000000 -0.930370
outer loop
vertex 28.100943 4.000000 -7.265453
vertex 30.594305 4.000000 -6.282917
vertex 30.594305 0.000000 -6.282917
endloop
endfacet
facet normal 0.160182 0.000000 -0.987087
outer loop
vertex 33.178516 0.000000 -5.572928
vertex 33.178516 4.000000 -5.572928
vertex 35.823883 0.000000 -5.143645
endloop
endfacet
facet normal 0.264925 0.000000 -0.964269
outer loop
vertex 30.594305 4.000000 -6.282917
vertex 33.178516 4.000000 -5.572928
vertex 33.178516 0.000000 -5.572928
endloop
endfacet
facet normal 0.053600 0.000000 -0.998562
outer loop
vertex 35.823883 0.000000 -5.143645
vertex 35.823883 4.000000 -5.143645
vertex 38.500000 0.000000 -5.000000
endloop
endfacet
facet normal 0.160182 0.000000 -0.987087
outer loop
vertex 33.178516 4.000000 -5.572928
vertex 35.823883 4.000000 -5.143645
vertex 35.823883 0.000000 -5.143645
endloop
endfacet
facet normal 0.053599 0.000000 -0.998563
outer loop
vertex 35.823883 4.000000 -5.143645
vertex 38.500000 4.000000 -5.000000
vertex 38.500000 0.000000 -5.000000
endloop
endfacet
endsolid walls
